<svg width="136" height="36" viewBox="0 0 136 36" fill="none" xmlns="http://www.w3.org/2000/svg">
<path d="M20.76 0.400002C21.1067 0.400002 21.3867 0.520002 21.6 0.760002C21.8401 0.973334 21.9601 1.25333 21.9601 1.6V28.8C21.9601 29.1467 21.8401 29.44 21.6 29.68C21.3867 29.8933 21.1067 30 20.76 30C20.4134 30 20.1201 29.8933 19.8801 29.68C19.6667 29.44 19.56 29.1467 19.56 28.8V26C18.8934 27.2267 17.8934 28.2667 16.5601 29.12C15.2534 29.9733 13.8 30.4 12.2 30.4C10.44 30.4 8.84005 29.9467 7.40005 29.04C5.98672 28.1067 4.86672 26.8267 4.04005 25.2C3.21338 23.5733 2.80005 21.7467 2.80005 19.72C2.80005 17.72 3.21338 15.9067 4.04005 14.28C4.86672 12.6533 5.98672 11.3867 7.40005 10.48C8.84005 9.54667 10.4267 9.08 12.16 9.08C13.7334 9.08 15.1867 9.48 16.52 10.28C17.8534 11.0533 18.8667 12.0667 19.56 13.32V1.6C19.56 1.25333 19.6667 0.973334 19.8801 0.760002C20.1201 0.520002 20.4134 0.400002 20.76 0.400002ZM12.44 28.16C13.8267 28.16 15.0667 27.8 16.16 27.08C17.2801 26.36 18.1467 25.36 18.76 24.08C19.4 22.7733 19.72 21.32 19.72 19.72C19.72 18.1467 19.4 16.72 18.76 15.44C18.1467 14.16 17.2801 13.16 16.16 12.44C15.0667 11.6933 13.8267 11.32 12.44 11.32C11.0534 11.32 9.80005 11.6933 8.68005 12.44C7.58672 13.16 6.72005 14.16 6.08005 15.44C5.46672 16.72 5.16005 18.1467 5.16005 19.72C5.16005 21.32 5.46672 22.76 6.08005 24.04C6.72005 25.32 7.58672 26.3333 8.68005 27.08C9.80005 27.8 11.0534 28.16 12.44 28.16Z" fill="#233044"/>
<path d="M44.8225 9.56C45.1692 9.56 45.4492 9.68 45.6626 9.92C45.9026 10.16 46.0226 10.4533 46.0226 10.8V28.8C46.0226 29.1467 45.9026 29.44 45.6626 29.68C45.4492 29.8933 45.1692 30 44.8225 30C44.4759 30 44.1826 29.8933 43.9426 29.68C43.7292 29.44 43.6226 29.1467 43.6226 28.8V26.12C42.9559 27.32 41.9559 28.3333 40.6226 29.16C39.2892 29.9867 37.8359 30.4 36.2626 30.4C34.4759 30.4 32.8625 29.9333 31.4225 29C30.0092 28.0667 28.8892 26.7867 28.0625 25.16C27.2625 23.5333 26.8625 21.7067 26.8625 19.68C26.8625 17.6533 27.2759 15.84 28.1025 14.24C28.9292 12.6133 30.0492 11.3467 31.4625 10.44C32.9025 9.53333 34.4892 9.08 36.2225 9.08C37.8225 9.08 39.2892 9.46667 40.6226 10.24C41.9559 11.0133 42.9559 12.0267 43.6226 13.28V10.8C43.6226 10.4533 43.7292 10.16 43.9426 9.92C44.1826 9.68 44.4759 9.56 44.8225 9.56ZM36.5025 28.16C37.8892 28.16 39.1292 27.8 40.2225 27.08C41.3426 26.3333 42.2092 25.32 42.8226 24.04C43.4626 22.7333 43.7826 21.28 43.7826 19.68C43.7826 18.1333 43.4626 16.72 42.8226 15.44C42.2092 14.16 41.3426 13.16 40.2225 12.44C39.1292 11.6933 37.8892 11.32 36.5025 11.32C35.1159 11.32 33.8625 11.68 32.7425 12.4C31.6492 13.12 30.7825 14.12 30.1425 15.4C29.5292 16.6533 29.2225 18.08 29.2225 19.68C29.2225 21.28 29.5292 22.7333 30.1425 24.04C30.7559 25.32 31.6092 26.3333 32.7025 27.08C33.8225 27.8 35.0892 28.16 36.5025 28.16Z" fill="#233044"/>
<path d="M61.925 9.08C64.405 9.08 66.2184 9.81333 67.3651 11.28C68.5384 12.72 69.125 14.64 69.125 17.04V28.8C69.125 29.1467 69.0051 29.44 68.7651 29.68C68.5251 29.8933 68.245 30 67.925 30C67.5784 30 67.2851 29.8933 67.0451 29.68C66.8317 29.44 66.725 29.1467 66.725 28.8V17.16C66.725 15.4267 66.285 14.0267 65.405 12.96C64.5517 11.8667 63.2184 11.32 61.405 11.32C60.2584 11.32 59.165 11.5867 58.125 12.12C57.1117 12.6533 56.2851 13.3733 55.6451 14.28C55.0051 15.16 54.6851 16.12 54.6851 17.16V28.8C54.6851 29.1467 54.5651 29.44 54.3251 29.68C54.1117 29.8933 53.8317 30 53.4851 30C53.1384 30 52.845 29.8933 52.605 29.68C52.3917 29.44 52.285 29.1467 52.285 28.8V10.88C52.285 10.5333 52.3917 10.2533 52.605 10.04C52.845 9.8 53.1384 9.68 53.4851 9.68C53.8317 9.68 54.1117 9.8 54.3251 10.04C54.5651 10.2533 54.6851 10.5333 54.6851 10.88V13.08C55.4051 11.9333 56.4317 10.9867 57.765 10.24C59.125 9.46667 60.5117 9.08 61.925 9.08Z" fill="#233044"/>
<path d="M79.41 11.88V25.28C79.41 26.2933 79.5967 26.9867 79.97 27.36C80.3434 27.7067 80.8367 27.88 81.4501 27.88C81.6101 27.88 81.81 27.8533 82.05 27.8C82.29 27.72 82.4767 27.68 82.61 27.68C82.85 27.68 83.0501 27.7867 83.2101 28C83.3967 28.1867 83.4901 28.4133 83.4901 28.68C83.4901 29.0533 83.2767 29.3733 82.8501 29.64C82.4234 29.88 81.9167 30 81.33 30C80.61 30 79.97 29.9333 79.41 29.8C78.85 29.6667 78.3034 29.2667 77.7701 28.6C77.2634 27.9333 77.01 26.8667 77.01 25.4V11.88H74.09C73.77 11.88 73.49 11.7733 73.25 11.56C73.0367 11.3467 72.93 11.08 72.93 10.76C72.93 10.44 73.0367 10.1733 73.25 9.96C73.49 9.74667 73.77 9.64 74.09 9.64H77.01V5.2C77.01 4.85333 77.1167 4.57333 77.33 4.36C77.57 4.12 77.8634 4 78.2101 4C78.5567 4 78.8367 4.12 79.05 4.36C79.29 4.57333 79.41 4.85333 79.41 5.2V9.64H83.41C83.7034 9.64 83.9567 9.76 84.1701 10C84.4101 10.24 84.5301 10.5067 84.5301 10.8C84.5301 11.12 84.4234 11.3867 84.2101 11.6C83.9967 11.7867 83.73 11.88 83.41 11.88H79.41Z" fill="#233044"/>
<path d="M103.525 28.2C103.711 28.4133 103.805 28.6533 103.805 28.92C103.805 29.24 103.685 29.5333 103.445 29.8C103.205 30.04 102.925 30.16 102.605 30.16C102.231 30.16 101.898 29.9733 101.605 29.6L95.4847 21.68L89.3647 29.64C89.1247 29.96 88.8047 30.12 88.4047 30.12C88.1114 30.12 87.8447 30.0267 87.6047 29.84C87.3647 29.6267 87.2447 29.36 87.2447 29.04C87.2447 28.7467 87.3381 28.4933 87.5247 28.28L94.0847 19.88L87.4047 11.28C87.2447 11.0667 87.1647 10.8267 87.1647 10.56C87.1647 10.24 87.2847 9.96 87.5247 9.72C87.7914 9.48 88.0847 9.36 88.4047 9.36C88.8047 9.36 89.1247 9.53333 89.3647 9.88L95.6047 17.92L101.605 9.88C101.871 9.53333 102.205 9.36 102.605 9.36C102.951 9.36 103.218 9.46667 103.405 9.68C103.618 9.86667 103.725 10.1067 103.725 10.4C103.725 10.6933 103.631 10.9467 103.445 11.16L96.9647 19.68L103.525 28.2Z" fill="#233044"/>
<path d="M124.94 9.56C125.286 9.56 125.566 9.68 125.78 9.92C126.02 10.16 126.14 10.4533 126.14 10.8V28.8C126.14 29.1467 126.02 29.44 125.78 29.68C125.566 29.8933 125.286 30 124.94 30C124.593 30 124.3 29.8933 124.06 29.68C123.846 29.44 123.74 29.1467 123.74 28.8V26.12C123.073 27.32 122.073 28.3333 120.74 29.16C119.406 29.9867 117.953 30.4 116.38 30.4C114.593 30.4 112.98 29.9333 111.54 29C110.126 28.0667 109.006 26.7867 108.18 25.16C107.38 23.5333 106.98 21.7067 106.98 19.68C106.98 17.6533 107.393 15.84 108.22 14.24C109.046 12.6133 110.166 11.3467 111.58 10.44C113.02 9.53333 114.606 9.08 116.34 9.08C117.94 9.08 119.406 9.46667 120.74 10.24C122.073 11.0133 123.073 12.0267 123.74 13.28V10.8C123.74 10.4533 123.846 10.16 124.06 9.92C124.3 9.68 124.593 9.56 124.94 9.56ZM116.62 28.16C118.006 28.16 119.246 27.8 120.34 27.08C121.46 26.3333 122.326 25.32 122.94 24.04C123.58 22.7333 123.9 21.28 123.9 19.68C123.9 18.1333 123.58 16.72 122.94 15.44C122.326 14.16 121.46 13.16 120.34 12.44C119.246 11.6933 118.006 11.32 116.62 11.32C115.233 11.32 113.98 11.68 112.86 12.4C111.766 13.12 110.9 14.12 110.26 15.4C109.646 16.6533 109.34 18.08 109.34 19.68C109.34 21.28 109.646 22.7333 110.26 24.04C110.873 25.32 111.726 26.3333 112.82 27.08C113.94 27.8 115.206 28.16 116.62 28.16Z" fill="#233044"/>
<path d="M135.042 28.8C135.042 29.1467 134.922 29.44 134.682 29.68C134.469 29.8933 134.189 30 133.842 30C133.496 30 133.202 29.8933 132.962 29.68C132.749 29.44 132.642 29.1467 132.642 28.8V1.6C132.642 1.25333 132.749 0.973334 132.962 0.760002C133.202 0.520002 133.496 0.400002 133.842 0.400002C134.189 0.400002 134.469 0.520002 134.682 0.760002C134.922 0.973334 135.042 1.25333 135.042 1.6V28.8Z" fill="#233044"/>
<path fill-rule="evenodd" clip-rule="evenodd" d="M74 36L1 36C0.447715 36 5.96046e-08 35.5523 0 35C0 34.4477 0.447715 34 1 34L74 34C74.5523 34 75 34.4477 75 35C75 35.5523 74.5523 36 74 36Z" fill="#52AADC"/>
</svg>
