<svg width="147" height="77" viewBox="0 0 147 77" fill="none" xmlns="http://www.w3.org/2000/svg">
<path d="M20.76 23.4C21.1067 23.4 21.3867 23.52 21.6 23.76C21.84 23.9733 21.96 24.2533 21.96 24.6V51.8C21.96 52.1467 21.84 52.44 21.6 52.68C21.3867 52.8933 21.1067 53 20.76 53C20.4133 53 20.12 52.8933 19.88 52.68C19.6667 52.44 19.56 52.1467 19.56 51.8V49C18.8933 50.2267 17.8933 51.2667 16.56 52.12C15.2533 52.9733 13.8 53.4 12.2 53.4C10.44 53.4 8.84 52.9467 7.4 52.04C5.98667 51.1067 4.86667 49.8267 4.04 48.2C3.21333 46.5733 2.8 44.7467 2.8 42.72C2.8 40.72 3.21333 38.9067 4.04 37.28C4.86667 35.6533 5.98667 34.3867 7.4 33.48C8.84 32.5467 10.4267 32.08 12.16 32.08C13.7333 32.08 15.1867 32.48 16.52 33.28C17.8533 34.0533 18.8667 35.0667 19.56 36.32V24.6C19.56 24.2533 19.6667 23.9733 19.88 23.76C20.12 23.52 20.4133 23.4 20.76 23.4ZM12.44 51.16C13.8267 51.16 15.0667 50.8 16.16 50.08C17.28 49.36 18.1467 48.36 18.76 47.08C19.4 45.7733 19.72 44.32 19.72 42.72C19.72 41.1467 19.4 39.72 18.76 38.44C18.1467 37.16 17.28 36.16 16.16 35.44C15.0667 34.6933 13.8267 34.32 12.44 34.32C11.0533 34.32 9.8 34.6933 8.68 35.44C7.58667 36.16 6.72 37.16 6.08 38.44C5.46667 39.72 5.16 41.1467 5.16 42.72C5.16 44.32 5.46667 45.76 6.08 47.04C6.72 48.32 7.58667 49.3333 8.68 50.08C9.8 50.8 11.0533 51.16 12.44 51.16ZM44.8225 32.56C45.1692 32.56 45.4492 32.68 45.6625 32.92C45.9025 33.16 46.0225 33.4533 46.0225 33.8V51.8C46.0225 52.1467 45.9025 52.44 45.6625 52.68C45.4492 52.8933 45.1692 53 44.8225 53C44.4758 53 44.1825 52.8933 43.9425 52.68C43.7292 52.44 43.6225 52.1467 43.6225 51.8V49.12C42.9558 50.32 41.9558 51.3333 40.6225 52.16C39.2892 52.9867 37.8358 53.4 36.2625 53.4C34.4758 53.4 32.8625 52.9333 31.4225 52C30.0092 51.0667 28.8892 49.7867 28.0625 48.16C27.2625 46.5333 26.8625 44.7067 26.8625 42.68C26.8625 40.6533 27.2758 38.84 28.1025 37.24C28.9292 35.6133 30.0492 34.3467 31.4625 33.44C32.9025 32.5333 34.4892 32.08 36.2225 32.08C37.8225 32.08 39.2892 32.4667 40.6225 33.24C41.9558 34.0133 42.9558 35.0267 43.6225 36.28V33.8C43.6225 33.4533 43.7292 33.16 43.9425 32.92C44.1825 32.68 44.4758 32.56 44.8225 32.56ZM36.5025 51.16C37.8892 51.16 39.1292 50.8 40.2225 50.08C41.3425 49.3333 42.2092 48.32 42.8225 47.04C43.4625 45.7333 43.7825 44.28 43.7825 42.68C43.7825 41.1333 43.4625 39.72 42.8225 38.44C42.2092 37.16 41.3425 36.16 40.2225 35.44C39.1292 34.6933 37.8892 34.32 36.5025 34.32C35.1158 34.32 33.8625 34.68 32.7425 35.4C31.6492 36.12 30.7825 37.12 30.1425 38.4C29.5292 39.6533 29.2225 41.08 29.2225 42.68C29.2225 44.28 29.5292 45.7333 30.1425 47.04C30.7558 48.32 31.6092 49.3333 32.7025 50.08C33.8225 50.8 35.0892 51.16 36.5025 51.16ZM61.925 32.08C64.405 32.08 66.2183 32.8133 67.365 34.28C68.5383 35.72 69.125 37.64 69.125 40.04V51.8C69.125 52.1467 69.005 52.44 68.765 52.68C68.525 52.8933 68.245 53 67.925 53C67.5783 53 67.285 52.8933 67.045 52.68C66.8317 52.44 66.725 52.1467 66.725 51.8V40.16C66.725 38.4267 66.285 37.0267 65.405 35.96C64.5517 34.8667 63.2183 34.32 61.405 34.32C60.2583 34.32 59.165 34.5867 58.125 35.12C57.1117 35.6533 56.285 36.3733 55.645 37.28C55.005 38.16 54.685 39.12 54.685 40.16V51.8C54.685 52.1467 54.565 52.44 54.325 52.68C54.1117 52.8933 53.8317 53 53.485 53C53.1383 53 52.845 52.8933 52.605 52.68C52.3917 52.44 52.285 52.1467 52.285 51.8V33.88C52.285 33.5333 52.3917 33.2533 52.605 33.04C52.845 32.8 53.1383 32.68 53.485 32.68C53.8317 32.68 54.1117 32.8 54.325 33.04C54.565 33.2533 54.685 33.5333 54.685 33.88V36.08C55.405 34.9333 56.4317 33.9867 57.765 33.24C59.125 32.4667 60.5117 32.08 61.925 32.08ZM79.41 34.88V48.28C79.41 49.2933 79.5967 49.9867 79.97 50.36C80.3433 50.7067 80.8367 50.88 81.45 50.88C81.61 50.88 81.81 50.8533 82.05 50.8C82.29 50.72 82.4767 50.68 82.61 50.68C82.85 50.68 83.05 50.7867 83.21 51C83.3967 51.1867 83.49 51.4133 83.49 51.68C83.49 52.0533 83.2767 52.3733 82.85 52.64C82.4233 52.88 81.9167 53 81.33 53C80.61 53 79.97 52.9333 79.41 52.8C78.85 52.6667 78.3033 52.2667 77.77 51.6C77.2633 50.9333 77.01 49.8667 77.01 48.4V34.88H74.09C73.77 34.88 73.49 34.7733 73.25 34.56C73.0367 34.3467 72.93 34.08 72.93 33.76C72.93 33.44 73.0367 33.1733 73.25 32.96C73.49 32.7467 73.77 32.64 74.09 32.64H77.01V28.2C77.01 27.8533 77.1167 27.5733 77.33 27.36C77.57 27.12 77.8633 27 78.21 27C78.5567 27 78.8367 27.12 79.05 27.36C79.29 27.5733 79.41 27.8533 79.41 28.2V32.64H83.41C83.7033 32.64 83.9567 32.76 84.17 33C84.41 33.24 84.53 33.5067 84.53 33.8C84.53 34.12 84.4233 34.3867 84.21 34.6C83.9967 34.7867 83.73 34.88 83.41 34.88H79.41ZM103.525 51.2C103.711 51.4133 103.805 51.6533 103.805 51.92C103.805 52.24 103.685 52.5333 103.445 52.8C103.205 53.04 102.925 53.16 102.605 53.16C102.231 53.16 101.898 52.9733 101.605 52.6L95.4847 44.68L89.3647 52.64C89.1247 52.96 88.8047 53.12 88.4047 53.12C88.1114 53.12 87.8447 53.0267 87.6047 52.84C87.3647 52.6267 87.2447 52.36 87.2447 52.04C87.2447 51.7467 87.338 51.4933 87.5247 51.28L94.0847 42.88L87.4047 34.28C87.2447 34.0667 87.1647 33.8267 87.1647 33.56C87.1647 33.24 87.2847 32.96 87.5247 32.72C87.7914 32.48 88.0847 32.36 88.4047 32.36C88.8047 32.36 89.1247 32.5333 89.3647 32.88L95.6047 40.92L101.605 32.88C101.871 32.5333 102.205 32.36 102.605 32.36C102.951 32.36 103.218 32.4667 103.405 32.68C103.618 32.8667 103.725 33.1067 103.725 33.4C103.725 33.6933 103.631 33.9467 103.445 34.16L96.9647 42.68L103.525 51.2ZM124.94 32.56C125.286 32.56 125.566 32.68 125.78 32.92C126.02 33.16 126.14 33.4533 126.14 33.8V51.8C126.14 52.1467 126.02 52.44 125.78 52.68C125.566 52.8933 125.286 53 124.94 53C124.593 53 124.3 52.8933 124.06 52.68C123.846 52.44 123.74 52.1467 123.74 51.8V49.12C123.073 50.32 122.073 51.3333 120.74 52.16C119.406 52.9867 117.953 53.4 116.38 53.4C114.593 53.4 112.98 52.9333 111.54 52C110.126 51.0667 109.006 49.7867 108.18 48.16C107.38 46.5333 106.98 44.7067 106.98 42.68C106.98 40.6533 107.393 38.84 108.22 37.24C109.046 35.6133 110.166 34.3467 111.58 33.44C113.02 32.5333 114.606 32.08 116.34 32.08C117.94 32.08 119.406 32.4667 120.74 33.24C122.073 34.0133 123.073 35.0267 123.74 36.28V33.8C123.74 33.4533 123.846 33.16 124.06 32.92C124.3 32.68 124.593 32.56 124.94 32.56ZM116.62 51.16C118.006 51.16 119.246 50.8 120.34 50.08C121.46 49.3333 122.326 48.32 122.94 47.04C123.58 45.7333 123.9 44.28 123.9 42.68C123.9 41.1333 123.58 39.72 122.94 38.44C122.326 37.16 121.46 36.16 120.34 35.44C119.246 34.6933 118.006 34.32 116.62 34.32C115.233 34.32 113.98 34.68 112.86 35.4C111.766 36.12 110.9 37.12 110.26 38.4C109.646 39.6533 109.34 41.08 109.34 42.68C109.34 44.28 109.646 45.7333 110.26 47.04C110.873 48.32 111.726 49.3333 112.82 50.08C113.94 50.8 115.206 51.16 116.62 51.16ZM135.042 51.8C135.042 52.1467 134.922 52.44 134.682 52.68C134.469 52.8933 134.189 53 133.842 53C133.496 53 133.202 52.8933 132.962 52.68C132.749 52.44 132.642 52.1467 132.642 51.8V24.6C132.642 24.2533 132.749 23.9733 132.962 23.76C133.202 23.52 133.496 23.4 133.842 23.4C134.189 23.4 134.469 23.52 134.682 23.76C134.922 23.9733 135.042 24.2533 135.042 24.6V51.8Z" fill="#233044"/>
<path d="M1 58L74 58" stroke="#52AADC" stroke-width="2" stroke-linecap="round"/>
</svg>
